<?xml version="1.0" encoding="UTF-8" standalone="no"?>
<svg
   width="16"
   height="16"
   viewBox="0 0 16 16"
   fill="none"
   version="1.1"
   id="svg62"
   sodipodi:docname="openfga-icon-color-16.svg"
   inkscape:version="1.1.2 (0a00cf5339, 2022-02-04)"
   xmlns:inkscape="http://www.inkscape.org/namespaces/inkscape"
   xmlns:sodipodi="http://sodipodi.sourceforge.net/DTD/sodipodi-0.dtd"
   xmlns="http://www.w3.org/2000/svg"
   xmlns:svg="http://www.w3.org/2000/svg">
  <sodipodi:namedview
     id="namedview64"
     pagecolor="#ffffff"
     bordercolor="#666666"
     borderopacity="1.0"
     inkscape:pageshadow="2"
     inkscape:pageopacity="0.0"
     inkscape:pagecheckerboard="0"
     showgrid="false"
     inkscape:zoom="1.2675996"
     inkscape:cx="203.13985"
     inkscape:cy="239.03447"
     inkscape:window-width="1920"
     inkscape:window-height="1008"
     inkscape:window-x="0"
     inkscape:window-y="0"
     inkscape:window-maximized="1"
     inkscape:current-layer="svg62" />
  <path
     d="M 12.66868,0 H 3.19058 C 1.42847,0 0,1.42847 0,3.19058 v 9.4781 c 0,1.76211 1.42847,3.19056 3.19058,3.19056 h 9.4781 c 1.76211,0 3.19056,-1.42845 3.19056,-3.19056 V 3.19058 C 15.85924,1.42847 14.43079,0 12.66868,0 Z"
     fill="#000000"
     id="path2"
     style="stroke-width:0.0343049" />
  <path
     d="m 9.42605,3.93689 c 1.7e-4,0.19674 0.0787,0.38538 0.21828,0.52452 0.13959,0.13914 0.32885,0.21736 0.52627,0.21757 0.19739,-2.1e-4 0.38669,-0.0784 0.52627,-0.21757 0.13959,-0.13914 0.21808,-0.32778 0.21828,-0.52452 -2e-4,-0.19677 -0.0787,-0.38541 -0.21828,-0.52455 C 10.55729,3.27321 10.36799,3.19497 10.1706,3.19478 9.97318,3.19497 9.78392,3.27318 9.64433,3.41234 9.50474,3.55148 9.42622,3.74012 9.42605,3.93689 Z"
     fill="#ffffff"
     id="path4"
     style="stroke-width:0.0343049" />
  <path
     d="m 4.94408,11.91775 c 2.1e-4,0.19674 0.0787,0.38541 0.21829,0.52452 0.13958,0.13914 0.32888,0.21739 0.52627,0.21756 0.19742,-1.7e-4 0.38668,-0.0784 0.52627,-0.21756 0.13958,-0.13911 0.21811,-0.32778 0.21828,-0.52452 -1.7e-4,-0.19677 -0.0787,-0.38542 -0.21828,-0.52456 -0.13959,-0.1391 -0.32885,-0.21735 -0.52627,-0.21756 -0.19739,2.1e-4 -0.38669,0.0785 -0.52627,0.21756 -0.13959,0.13914 -0.21808,0.32779 -0.21829,0.52456 z"
     fill="#ffffff"
     id="path6"
     style="stroke-width:0.0343049" />
  <path
     d="m 9.37106,7.9273 c 2e-4,0.19678 0.0787,0.38542 0.21831,0.52456 0.13959,0.13911 0.32885,0.21735 0.52627,0.21756 0.1974,-2.1e-4 0.38669,-0.0784 0.52628,-0.21756 C 10.7815,8.31272 10.85999,8.12408 10.8602,7.9273 10.85999,7.73056 10.7815,7.54192 10.64192,7.40278 10.50233,7.26364 10.31304,7.18539 10.11564,7.18522 9.91822,7.18539 9.72896,7.26362 9.58937,7.40278 9.44975,7.54192 9.37126,7.73056 9.37106,7.9273 Z"
     fill="#ffffff"
     id="path8"
     style="stroke-width:0.0343049" />
  <path
     d="M 2.64632,7.9273 C 2.64651,8.12408 2.72502,8.31272 2.86461,8.45186 3.0042,8.59097 3.19347,8.66921 3.39088,8.66942 3.58829,8.66921 3.77758,8.59102 3.91717,8.45186 4.05675,8.31272 4.13524,8.12408 4.13545,7.9273 4.13524,7.73056 4.05675,7.54192 3.91717,7.40278 3.77758,7.26364 3.58829,7.18539 3.39088,7.18522 3.19347,7.18539 3.0042,7.26362 2.86461,7.40278 2.72502,7.54192 2.64651,7.73056 2.64632,7.9273 Z"
     fill="#ffffff"
     id="path10"
     style="stroke-width:0.0343049" />
  <path
     d="m 6.30822,4.35359 c 0.0307,-0.0485 0.0729,-0.0888 0.12291,-0.11728 0.0499,-0.0285 0.10617,-0.0444 0.16374,-0.0463 h 0.43639 c 0.0576,0.002 0.11386,0.0176 0.16384,0.0461 0.05,0.0285 0.0921,0.0688 0.12281,0.11746 0.0683,0.0996 0.15993,0.18096 0.26696,0.23722 0.10703,0.0563 0.22617,0.0857 0.34717,0.0856 0.11073,2e-4 0.2201,-0.0243 0.32003,-0.0718 0.1,-0.0475 0.18795,-0.11664 0.25756,-0.20247 0.0705,-0.0867 0.12061,-0.18799 0.14655,-0.29657 0.0259,-0.10854 0.027,-0.2215 0.003,-0.33052 C 8.62898,3.63297 8.55744,3.50295 8.45339,3.40129 8.34938,3.29963 8.21754,3.23087 8.07442,3.20362 7.92815,3.17552 7.77676,3.19162 7.63975,3.24982 7.5027,3.30812 7.3863,3.40593 7.30551,3.53069 c -0.0321,0.0457 -0.0751,0.0826 -0.12518,0.10758 -0.05,0.0249 -0.10555,0.037 -0.16147,0.0353 H 6.6025 C 6.5467,3.67457 6.49125,3.66277 6.44127,3.63787 6.39127,3.61297 6.34817,3.57617 6.31589,3.5307 6.23419,3.4073 6.11757,3.31095 5.98073,3.25396 5.84389,3.19696 5.69312,3.18196 5.54766,3.21076 5.40465,3.23816 5.27288,3.30696 5.1689,3.40863 5.06489,3.51026 4.99326,3.64017 4.9629,3.78216 4.9395,3.89122 4.9407,4.00408 4.9669,4.11259 c 0.0259,0.10847 0.0758,0.20984 0.146,0.29666 0.0698,0.0858 0.15797,0.15489 0.258,0.20237 0.10007,0.0474 0.2095,0.072 0.32031,0.0719 C 5.81333,4.68325 5.9335,4.65302 6.04108,4.59542 6.1487,4.53782 6.24043,4.4548 6.30822,4.35353 Z"
     fill="url(#paint0_linear_1011_17367)"
     id="path12"
     style="fill:url(#paint0_linear_1011_17367);stroke-width:0.0343049" />
  <path
     d="m 7.42875,6.35343 c 0.0307,-0.0485 0.0729,-0.0888 0.12291,-0.11732 0.05,-0.0285 0.10618,-0.0444 0.16371,-0.0462 h 0.43642 c 0.0576,0.002 0.11383,0.0176 0.16384,0.0461 0.05,0.0285 0.0922,0.0689 0.12282,0.11749 0.0683,0.0995 0.15992,0.18096 0.26696,0.23722 0.10699,0.0563 0.22617,0.0856 0.34716,0.0856 0.11074,1.7e-4 0.22007,-0.0243 0.32003,-0.0718 0.1,-0.0475 0.18796,-0.11667 0.25756,-0.20246 0.0705,-0.0867 0.12062,-0.18803 0.14655,-0.29657 0.0259,-0.10854 0.027,-0.22151 0.003,-0.33056 C 9.74951,5.63287 9.67796,5.50286 9.57391,5.40121 9.4699,5.29957 9.33807,5.23078 9.19495,5.20355 9.04867,5.17535 8.89728,5.19155 8.76027,5.24975 8.62322,5.30805 8.50683,5.40587 8.42604,5.53064 c -0.0321,0.0457 -0.0751,0.0826 -0.12518,0.10758 -0.05,0.0249 -0.10556,0.037 -0.16147,0.0353 H 7.72303 C 7.66713,5.67452 7.61178,5.66272 7.56179,5.63782 7.51179,5.61292 7.46869,5.57612 7.43638,5.53069 7.35478,5.40729 7.23806,5.31093 7.10125,5.25392 6.96441,5.19692 6.81364,5.18192 6.66819,5.21072 6.52517,5.23812 6.39341,5.30702 6.28943,5.40859 6.18542,5.5102 6.11375,5.64015 6.08343,5.7821 c -0.0234,0.10906 -0.0222,0.22196 0.004,0.33046 0.0259,0.10847 0.0758,0.20985 0.146,0.29667 0.0698,0.0858 0.15798,0.15489 0.25801,0.20233 0.10007,0.0474 0.2095,0.072 0.3203,0.0719 0.12213,-3.1e-4 0.2423,-0.0306 0.34988,-0.0881 0.10761,-0.0576 0.19934,-0.14065 0.26713,-0.24188 z"
     fill="url(#paint1_linear_1011_17367)"
     id="path14"
     style="fill:url(#paint1_linear_1011_17367);stroke-width:0.0343049" />
  <path
     d="m 5.30826,10.22655 c -0.05,0.0285 -0.0922,0.0688 -0.12291,0.11729 -0.0677,0.10127 -0.15952,0.18436 -0.2671,0.24188 -0.10761,0.0576 -0.22778,0.0878 -0.34991,0.0881 -0.1108,1e-4 -0.22024,-0.0245 -0.32027,-0.0719 C 4.148,10.55442 4.05984,10.48531 3.99003,10.39955 3.91983,10.31275 3.86993,10.21139 3.84403,10.10288 3.81813,9.99441 3.81683,9.88151 3.84003,9.77246 3.87043,9.63047 3.94201,9.50056 4.04603,9.39895 4.15004,9.2973 4.28177,9.22849 4.42479,9.20108 c 0.14545,-0.0288 0.29622,-0.0138 0.43306,0.0432 0.13684,0.057 0.25351,0.15334 0.33516,0.27674 0.0323,0.0454 0.0754,0.0823 0.12538,0.10717 0.05,0.0249 0.10539,0.0371 0.16124,0.0357 h 0.41635 c 0.056,0.002 0.11143,-0.0103 0.16148,-0.0353 0.05,-0.0249 0.0931,-0.0619 0.12518,-0.10758 0.0808,-0.12477 0.19718,-0.22257 0.33423,-0.28086 0.13701,-0.0583 0.2884,-0.0744 0.43471,-0.0462 0.14309,0.0272 0.27492,0.096 0.37897,0.19767 0.0445,0.0435 0.083,0.0921 0.11495,0.14473 0.0308,0.0384 0.0696,0.0698 0.11389,0.0919 0.05,0.0249 0.10535,0.0371 0.16124,0.0357 h 0.41635 c 0.0559,0.002 0.11143,-0.0103 0.16148,-0.0353 0.05,-0.0249 0.0931,-0.0619 0.12518,-0.10758 0.0808,-0.12477 0.19718,-0.22257 0.33419,-0.28086 0.13705,-0.0583 0.28844,-0.0744 0.43472,-0.0462 0.14312,0.0272 0.27495,0.096 0.37896,0.19767 0.10405,0.10164 0.17564,0.23166 0.2058,0.37371 0.0238,0.10902 0.0227,0.22199 -0.003,0.33057 -0.0259,0.10854 -0.076,0.20987 -0.14655,0.29653 -0.0696,0.0858 -0.1576,0.15502 -0.25756,0.20246 -0.1,0.0475 -0.20929,0.072 -0.32003,0.0718 C 8.92918,10.66679 8.81,10.63735 8.703,10.58115 8.59597,10.52495 8.50435,10.44348 8.43604,10.34393 8.40534,10.29533 8.36324,10.25503 8.3132,10.22647 8.2632,10.19797 8.20696,10.18207 8.14939,10.18037 H 7.71297 c -0.0575,0.002 -0.11376,0.0177 -0.16371,0.0462 -0.05,0.0285 -0.0922,0.0688 -0.12291,0.11729 -0.0678,0.10127 -0.15952,0.18436 -0.26713,0.24188 -0.10762,0.0576 -0.22779,0.0878 -0.34988,0.0881 -0.1108,10e-5 -0.22024,-0.0245 -0.3203,-0.0719 -0.10004,-0.0475 -0.1882,-0.11661 -0.25801,-0.20237 -0.0249,-0.0307 -0.0472,-0.0633 -0.0668,-0.0974 -0.026,-0.0302 -0.0571,-0.0559 -0.092,-0.0758 -0.05,-0.0285 -0.10624,-0.0444 -0.16384,-0.0461 H 5.472 c -0.0576,0.002 -0.11375,0.0177 -0.16374,0.0462 z"
     fill="url(#paint2_linear_1011_17367)"
     id="path16"
     style="fill:url(#paint2_linear_1011_17367);stroke-width:0.0343049" />
  <path
     d="m 8.6721,12.22179 c -0.05,0.0285 -0.0922,0.0688 -0.12292,0.11729 -0.0677,0.10127 -0.15948,0.18432 -0.2671,0.24188 -0.10761,0.0576 -0.22778,0.0878 -0.34991,0.0881 -0.1108,10e-5 -0.2202,-0.0245 -0.32027,-0.0719 -0.10006,-0.0475 -0.18819,-0.11661 -0.258,-0.20237 -0.0702,-0.0868 -0.1201,-0.18819 -0.14604,-0.29667 -0.0259,-0.1085 -0.0272,-0.22137 -0.004,-0.33042 0.0303,-0.14199 0.10199,-0.2719 0.20597,-0.37351 0.10401,-0.10165 0.23574,-0.17046 0.37876,-0.19787 0.14549,-0.0288 0.29626,-0.0138 0.43306,0.0432 0.13685,0.057 0.25352,0.15334 0.33516,0.27674 0.0323,0.0455 0.0754,0.0822 0.12539,0.10717 0.05,0.0249 0.10538,0.0371 0.16126,0.0357 h 0.41636 c 0.0559,0.002 0.11139,-0.0103 0.16144,-0.0353 0.05,-0.0249 0.0931,-0.0619 0.12518,-0.10758 0.0808,-0.12477 0.19722,-0.22257 0.33423,-0.28086 0.13701,-0.0583 0.28844,-0.0744 0.43471,-0.0463 0.14309,0.0273 0.27492,0.096 0.37897,0.19766 0.10401,0.10168 0.1756,0.2317 0.20579,0.37375 0.0238,0.10902 0.0227,0.22199 -0.003,0.33053 -0.0259,0.10858 -0.076,0.20991 -0.14651,0.29657 -0.0696,0.0858 -0.15763,0.15499 -0.25756,0.20246 -0.1,0.0475 -0.20933,0.072 -0.32003,0.0718 -0.121,4e-5 -0.24017,-0.0294 -0.3472,-0.0856 -0.107,-0.0563 -0.19863,-0.13767 -0.26693,-0.23722 -0.0307,-0.0486 -0.0729,-0.089 -0.12284,-0.11746 -0.05,-0.0285 -0.10625,-0.0444 -0.16381,-0.0461 H 8.83583 c -0.0575,0.002 -0.11375,0.0178 -0.16373,0.0463 z"
     fill="url(#paint3_linear_1011_17367)"
     id="path18"
     style="fill:url(#paint3_linear_1011_17367);stroke-width:0.0343049" />
  <path
     d="m 11.72375,7.9273 c 1.8e-4,0.19678 0.0787,0.38542 0.21829,0.52456 0.13958,0.13911 0.32884,0.21735 0.52627,0.21756 0.19739,-2.1e-4 0.38668,-0.0784 0.52627,-0.21756 C 13.13416,8.31272 13.21269,8.12408 13.21286,7.9273 13.21269,7.73056 13.13416,7.54192 12.99458,7.40278 12.85499,7.26364 12.6657,7.18539 12.46831,7.18522 12.27088,7.18539 12.08162,7.26362 11.94204,7.40278 11.80245,7.54192 11.72393,7.73056 11.72375,7.9273 Z"
     fill="url(#paint4_linear_1011_17367)"
     id="path20"
     style="fill:url(#paint4_linear_1011_17367);stroke-width:0.0343049" />
  <path
     d="M 5.10741,8.45186 C 4.96782,8.31272 4.88933,8.12408 4.88913,7.9273 4.88933,7.73056 4.96783,7.54192 5.10741,7.40278 5.247,7.26364 5.43629,7.18539 5.63368,7.18522 5.8311,7.18539 6.02036,7.26362 6.15995,7.40278 6.29954,7.54192 6.37806,7.73056 6.37823,7.9273 6.37806,8.12408 6.29953,8.31272 6.15995,8.45186 6.02036,8.59097 5.8311,8.66921 5.63368,8.66942 5.43629,8.66921 5.247,8.59102 5.10741,8.45186 Z"
     fill="url(#paint5_linear_1011_17367)"
     id="path22"
     style="fill:url(#paint5_linear_1011_17367);stroke-width:0.0343049" />
  <path
     d="m 10.54415,5.9321 c 2e-4,0.19674 0.0787,0.38541 0.21828,0.52452 0.13959,0.13914 0.32888,0.21739 0.52627,0.21756 0.19742,-1.7e-4 0.38668,-0.0784 0.52627,-0.21756 C 11.95456,6.31751 12.03308,6.12884 12.03325,5.9321 12.03308,5.73533 11.95455,5.54668 11.81497,5.40758 11.67538,5.26844 11.48612,5.19019 11.2887,5.18998 c -0.19739,2.1e-4 -0.38668,0.0785 -0.52627,0.2176 -0.13959,0.1391 -0.21808,0.32775 -0.21828,0.52452 z"
     fill="#ffffff"
     id="path24"
     style="stroke-width:0.0343049" />
  <path
     d="m 3.82592,5.9321 c 2e-4,0.19674 0.0787,0.38541 0.21828,0.52452 C 4.18378,6.59576 4.37308,6.67401 4.57047,6.67418 4.76789,6.67401 4.95715,6.59578 5.09674,6.45662 5.23636,6.31751 5.31485,6.12884 5.31506,5.9321 5.31485,5.73533 5.23636,5.54668 5.09674,5.40758 4.95715,5.26844 4.76789,5.19019 4.57047,5.18998 4.37308,5.19019 4.18378,5.26848 4.0442,5.40758 3.90461,5.54668 3.82612,5.73533 3.82592,5.9321 Z"
     fill="#ffffff"
     id="path26"
     style="stroke-width:0.0343049" />
  <path
     d="m 10.54415,9.92254 c 2e-4,0.19674 0.0787,0.38538 0.21828,0.52452 0.13959,0.13914 0.32888,0.21736 0.52627,0.21757 0.19742,-2.1e-4 0.38668,-0.0784 0.52627,-0.21757 0.13959,-0.13914 0.21811,-0.32778 0.21828,-0.52452 C 12.03308,9.72577 11.95455,9.53713 11.81497,9.39799 11.67538,9.25885 11.48612,9.18063 11.2887,9.18043 c -0.19739,2e-4 -0.38668,0.0784 -0.52627,0.21756 -0.13959,0.13914 -0.21808,0.32778 -0.21828,0.52455 z"
     fill="#ffffff"
     id="path28"
     style="stroke-width:0.0343049" />
  <defs
     id="defs60">
    <linearGradient
       id="paint0_linear_1011_17367"
       x1="111.624"
       y1="80.764"
       x2="335.625"
       y2="384.799"
       gradientUnits="userSpaceOnUse"
       gradientTransform="matrix(0.03430487,0,0,0.03430487,-0.00566,0)">
      <stop
         stop-color="#00FAFF"
         id="stop30" />
      <stop
         offset="1"
         stop-color="#8BFF95"
         id="stop32" />
    </linearGradient>
    <linearGradient
       id="paint1_linear_1011_17367"
       x1="111.624"
       y1="80.764"
       x2="335.625"
       y2="384.799"
       gradientUnits="userSpaceOnUse"
       gradientTransform="matrix(0.03430487,0,0,0.03430487,-0.00566,0)">
      <stop
         stop-color="#00FAFF"
         id="stop35" />
      <stop
         offset="1"
         stop-color="#8BFF95"
         id="stop37" />
    </linearGradient>
    <linearGradient
       id="paint2_linear_1011_17367"
       x1="111.624"
       y1="80.764"
       x2="335.625"
       y2="384.799"
       gradientUnits="userSpaceOnUse"
       gradientTransform="matrix(0.03430487,0,0,0.03430487,-0.00566,0)">
      <stop
         stop-color="#00FAFF"
         id="stop40" />
      <stop
         offset="1"
         stop-color="#8BFF95"
         id="stop42" />
    </linearGradient>
    <linearGradient
       id="paint3_linear_1011_17367"
       x1="111.624"
       y1="80.764"
       x2="335.625"
       y2="384.799"
       gradientUnits="userSpaceOnUse"
       gradientTransform="matrix(0.03430487,0,0,0.03430487,-0.00566,0)">
      <stop
         stop-color="#00FAFF"
         id="stop45" />
      <stop
         offset="1"
         stop-color="#8BFF95"
         id="stop47" />
    </linearGradient>
    <linearGradient
       id="paint4_linear_1011_17367"
       x1="111.624"
       y1="80.764"
       x2="335.625"
       y2="384.799"
       gradientUnits="userSpaceOnUse"
       gradientTransform="matrix(0.03430487,0,0,0.03430487,-0.00566,0)">
      <stop
         stop-color="#00FAFF"
         id="stop50" />
      <stop
         offset="1"
         stop-color="#8BFF95"
         id="stop52" />
    </linearGradient>
    <linearGradient
       id="paint5_linear_1011_17367"
       x1="111.624"
       y1="80.764"
       x2="335.625"
       y2="384.799"
       gradientUnits="userSpaceOnUse"
       gradientTransform="matrix(0.03430487,0,0,0.03430487,-0.00566,0)">
      <stop
         stop-color="#00FAFF"
         id="stop55" />
      <stop
         offset="1"
         stop-color="#8BFF95"
         id="stop57" />
    </linearGradient>
  </defs>
</svg>
